<?xml version="1.0" standalone="no"?>
<!DOCTYPE svg PUBLIC "-//W3C//DTD SVG 20010904//EN"
 "http://www.w3.org/TR/2001/REC-SVG-20010904/DTD/svg10.dtd">
<svg version="1.0" xmlns="http://www.w3.org/2000/svg"
 width="512.000000pt" height="512.000000pt" viewBox="0 0 512.000000 512.000000"
 preserveAspectRatio="xMidYMid meet">

<g transform="translate(0.000000,512.000000) scale(0.100000,-0.100000)"
fill="#000000" stroke="none">
<path d="M2488 5099 c-23 -12 -46 -35 -58 -59 -19 -37 -20 -58 -20 -375 0
-317 1 -338 20 -375 23 -45 80 -80 130 -80 50 0 107 35 130 80 19 37 20 58 20
375 0 317 -1 338 -20 375 -37 73 -127 99 -202 59z"/>
<path d="M804 4391 c-72 -33 -106 -107 -83 -178 16 -50 443 -483 506 -514 60
-29 113 -19 163 31 47 47 59 99 35 156 -21 52 -444 477 -501 504 -50 25 -68
25 -120 1z"/>
<path d="M4195 4390 c-57 -28 -479 -453 -500 -504 -24 -57 -12 -109 35 -156
50 -50 103 -60 163 -31 63 31 490 464 506 514 23 71 -11 145 -83 178 -52 24
-72 24 -121 -1z"/>
<path d="M2440 3904 c-358 -43 -604 -158 -835 -389 -435 -433 -520 -1113 -206
-1640 58 -98 84 -132 225 -292 122 -139 170 -268 186 -493 5 -74 14 -151 19
-170 13 -43 73 -145 107 -181 23 -24 24 -30 24 -171 0 -80 5 -169 10 -199 34
-180 179 -325 359 -359 70 -13 392 -13 462 0 180 34 325 179 359 359 5 30 10
119 10 198 l0 145 34 39 c78 91 116 200 116 329 0 139 50 312 123 421 20 30
64 86 99 124 175 193 272 367 333 597 65 249 56 516 -26 764 -153 460 -551
807 -1031 899 -83 16 -302 27 -368 19z m248 -304 c343 -43 648 -255 803 -558
195 -382 144 -834 -132 -1157 -141 -166 -173 -208 -213 -279 -79 -138 -136
-354 -136 -513 0 -94 -23 -144 -80 -173 -37 -19 -58 -20 -370 -20 -312 0 -333
1 -370 20 -56 29 -80 80 -80 172 0 154 -42 333 -112 473 -46 93 -93 158 -198
275 -95 106 -129 155 -185 272 -70 144 -97 264 -98 433 -1 79 4 170 12 210
102 547 605 914 1159 845z m172 -3090 c0 -112 -20 -159 -80 -190 -35 -18 -59
-20 -220 -20 -161 0 -185 2 -220 20 -60 31 -80 78 -80 190 l0 90 300 0 300 0
0 -90z"/>
<path d="M2415 3295 c-267 -49 -489 -247 -570 -506 -22 -70 -15 -117 26 -164
16 -18 46 -39 65 -45 84 -28 157 20 199 131 67 173 209 282 390 296 90 7 139
32 165 83 56 110 -20 221 -152 219 -29 0 -84 -7 -123 -14z"/>
<path d="M78 2689 c-43 -22 -78 -81 -78 -129 0 -50 35 -107 80 -130 37 -19 58
-20 375 -20 317 0 338 1 375 20 45 23 80 80 80 130 0 50 -35 107 -80 130 -37
19 -58 20 -377 20 -317 -1 -340 -2 -375 -21z"/>
<path d="M4288 2689 c-43 -22 -78 -81 -78 -129 0 -50 35 -107 80 -130 37 -19
58 -20 375 -20 317 0 338 1 375 20 45 23 80 80 80 130 0 50 -35 107 -80 130
-37 19 -58 20 -377 20 -317 -1 -340 -2 -375 -21z"/>
</g>
</svg>
